<svg id="svg" version="1.1" xmlns="http://www.w3.org/2000/svg" xmlns:xlink="http://www.w3.org/1999/xlink" width="400" height="400" viewBox="0, 0, 400,400"><g id="svgg"><path id="path0" d="M247.822 75.800 C 207.436 79.944,174.504 106.593,162.049 145.209 C 160.341 150.504,159.741 151.556,158.695 151.091 C 128.497 137.664,94.477 152.365,84.746 183.048 C 83.682 186.400,82.812 190.042,82.812 191.140 C 82.813 192.669,82.513 193.021,81.530 192.644 C 71.441 188.772,48.602 191.748,35.283 198.670 C -6.935 220.612,-12.475 281.894,25.187 310.359 C 42.526 323.464,51.239 325.219,97.135 324.848 L 126.692 324.609 128.971 322.058 C 131.939 318.735,132.098 314.355,129.366 311.176 L 127.481 308.984 92.842 308.554 L 58.203 308.124 51.937 306.038 C 15.421 293.879,4.186 249.784,30.783 223.011 C 45.327 208.370,64.760 203.593,82.636 210.262 C 94.369 214.640,98.728 212.165,98.521 201.242 C 97.920 169.500,132.822 151.261,157.979 170.171 C 166.760 176.772,173.320 174.503,174.579 164.427 C 180.810 114.555,231.818 81.061,280.315 94.996 C 321.184 106.739,347.780 148.517,340.199 189.063 C 337.184 205.185,337.638 206.528,347.066 209.361 C 395.136 223.809,395.805 289.811,348.047 306.075 L 341.797 308.203 262.891 308.396 C 219.492 308.502,183.182 308.775,182.202 309.003 C 176.001 310.444,176.180 321.270,182.449 323.890 C 185.753 325.270,329.173 325.538,340.979 324.186 C 387.291 318.881,413.985 269.143,392.962 227.330 C 386.603 214.684,375.347 203.712,362.826 197.957 C 356.734 195.156,356.257 194.771,356.645 192.969 C 357.893 187.175,357.919 167.257,356.688 159.768 C 348.088 107.443,300.106 70.435,247.822 75.800 M254.072 107.427 C 251.021 108.753,248.879 113.080,249.615 116.430 C 250.930 122.419,259.200 124.962,263.470 120.692 C 270.250 113.912,262.929 103.579,254.072 107.427 M282.930 116.818 C 277.932 121.023,279.234 126.966,286.160 131.563 C 300.220 140.896,310.079 157.981,310.143 173.126 C 310.183 182.591,318.365 187.224,324.393 181.195 L 326.792 178.797 326.317 170.844 C 325.024 149.184,313.686 129.722,295.330 117.657 C 290.034 114.175,286.366 113.927,282.930 116.818 M149.805 309.438 C 144.553 312.496,145.405 321.469,151.175 323.880 C 159.397 327.315,166.475 317.136,160.216 310.877 C 157.779 308.440,152.719 307.740,149.805 309.438 " stroke="none" fill="#000000" fill-rule="evenodd"></path></g></svg>