<svg id="svg" version="1.1" xmlns="http://www.w3.org/2000/svg" xmlns:xlink="http://www.w3.org/1999/xlink" width="400" height="400" viewBox="0, 0, 400,400"><g id="svgg"><path id="path0" d="M4.921 1.531 C 0.109 4.465,-0.000 5.148,0.000 32.340 L 0.000 56.944 1.885 59.136 C 3.482 60.992,4.367 61.328,7.663 61.328 C 15.575 61.328,16.396 58.815,16.402 34.570 L 16.406 16.406 34.570 16.402 C 58.815 16.396,61.328 15.575,61.328 7.663 C 61.328 4.367,60.992 3.482,59.136 1.885 L 56.944 0.000 32.183 0.003 C 9.003 0.006,7.262 0.103,4.921 1.531 M343.272 2.328 C 338.975 4.064,337.135 9.579,339.395 13.949 C 341.328 17.689,343.049 17.969,364.099 17.969 L 383.594 17.969 383.594 36.230 C 383.594 46.274,383.812 55.586,384.080 56.922 C 385.390 63.475,393.299 65.863,398.028 61.134 L 400.000 59.162 400.000 34.384 C 400.000 -0.590,402.084 1.542,367.969 1.613 C 355.293 1.640,344.179 1.962,343.272 2.328 M196.267 28.094 C 193.775 28.701,187.582 32.178,138.672 60.423 C 118.705 71.954,114.887 74.450,112.891 77.280 L 110.547 80.602 110.156 125.997 L 109.766 171.393 71.165 193.704 C 31.699 216.516,30.152 217.592,28.873 223.107 C 27.946 227.105,27.946 313.520,28.873 317.518 C 30.156 323.049,31.654 324.081,73.470 348.242 C 112.558 370.827,114.549 371.875,118.371 371.875 C 122.182 371.875,124.092 370.880,159.037 350.696 C 179.203 339.047,196.758 329.009,198.047 328.389 C 200.380 327.267,200.564 327.362,239.025 349.568 C 275.855 370.832,277.847 371.875,281.649 371.875 C 285.457 371.875,287.490 370.805,326.544 348.242 C 368.390 324.067,369.840 323.067,371.127 317.518 C 372.054 313.520,372.054 227.105,371.127 223.107 C 369.845 217.579,368.329 216.525,328.842 193.695 L 290.234 171.375 289.844 125.988 L 289.453 80.602 287.109 77.277 C 285.068 74.381,280.438 71.450,251.172 54.522 C 201.885 26.015,202.865 26.487,196.267 28.094 M231.663 62.559 C 248.838 72.474,263.137 80.824,263.439 81.114 C 263.740 81.405,249.580 89.125,231.972 98.269 L 199.956 114.895 167.874 98.148 L 135.791 81.401 139.185 79.424 C 160.752 66.860,199.671 44.531,200.005 44.531 C 200.242 44.531,214.488 52.644,231.663 62.559 M170.437 118.275 L 191.215 129.128 191.676 133.022 C 193.128 145.283,206.874 145.261,208.327 132.996 L 208.791 129.075 240.590 112.585 C 258.079 103.515,272.628 96.094,272.921 96.094 C 273.213 96.094,273.361 113.033,273.250 133.737 L 273.047 171.380 241.016 189.873 L 208.984 208.366 208.309 204.177 C 206.527 193.129,193.470 193.135,191.691 204.185 L 191.016 208.382 158.984 189.854 L 126.953 171.326 126.750 133.347 L 126.548 95.369 138.103 101.395 C 144.459 104.710,159.009 112.306,170.437 118.275 M194.497 163.086 C 189.130 167.884,192.781 177.344,200.000 177.344 C 200.902 177.344,202.667 176.813,203.922 176.164 C 211.276 172.361,208.333 160.938,200.000 160.938 C 197.721 160.938,196.263 161.507,194.497 163.086 M150.749 204.297 C 167.922 214.180,181.986 222.458,182.002 222.693 C 182.018 222.929,167.657 230.583,150.088 239.703 L 118.145 256.285 86.416 239.717 C 68.965 230.605,54.701 222.950,54.718 222.707 C 54.772 221.931,117.538 186.003,118.551 186.169 C 119.086 186.256,133.575 194.414,150.749 204.297 M314.030 204.297 C 331.203 214.180,345.267 222.455,345.283 222.686 C 345.299 222.918,330.937 230.572,313.366 239.695 L 281.420 256.283 249.694 239.725 C 232.245 230.618,217.983 222.964,218.001 222.716 C 218.057 221.929,280.816 185.990,281.832 186.163 C 282.367 186.254,296.856 194.414,314.030 204.297 M77.841 254.019 C 95.259 263.105,109.660 270.927,109.841 271.402 C 110.023 271.877,110.081 289.743,109.969 311.105 L 109.766 349.944 77.564 331.417 L 45.362 312.891 45.337 275.195 C 45.324 254.463,45.506 237.500,45.742 237.500 C 45.978 237.500,60.422 244.934,77.841 254.019 M191.390 275.195 L 191.375 312.891 163.570 328.906 C 148.277 337.715,133.694 346.097,131.164 347.532 L 126.563 350.142 126.564 310.423 L 126.565 270.703 158.400 254.133 C 175.909 245.020,190.498 237.549,190.820 237.532 C 191.143 237.514,191.399 254.463,191.390 275.195 M241.406 254.140 L 273.047 270.713 273.249 310.406 L 273.452 350.099 268.885 347.510 C 266.373 346.087,251.786 337.715,236.471 328.906 L 208.624 312.891 208.609 275.195 C 208.601 254.463,208.857 237.515,209.180 237.533 C 209.502 237.551,224.004 245.024,241.406 254.140 M354.665 275.195 L 354.643 312.891 326.841 328.906 C 311.550 337.715,296.970 346.097,294.441 347.532 L 289.844 350.142 289.846 310.423 L 289.849 270.703 321.682 254.128 C 339.191 245.011,353.779 237.540,354.102 237.526 C 354.424 237.512,354.678 254.463,354.665 275.195 M5.724 336.491 C 4.790 336.667,3.120 337.718,2.013 338.825 L 0.000 340.838 0.000 365.616 C 0.000 400.763,-2.224 398.568,33.073 398.258 L 57.161 398.047 59.440 395.495 C 61.991 392.640,62.380 389.483,60.605 386.051 C 58.672 382.312,56.948 382.031,35.949 382.031 L 16.502 382.031 16.259 361.914 C 16.066 345.938,15.782 341.445,14.881 340.086 C 13.112 337.421,9.111 335.850,5.724 336.491 M388.522 339.030 C 384.327 340.818,384.004 342.492,383.740 363.830 L 383.496 383.594 365.381 383.598 C 341.189 383.604,338.672 384.428,338.672 392.337 C 338.672 395.633,339.008 396.518,340.864 398.115 L 343.056 400.000 367.660 400.000 C 402.678 400.000,399.993 402.672,399.997 367.817 C 400.000 343.258,399.986 343.039,398.241 341.011 C 396.297 338.751,391.481 337.769,388.522 339.030 " stroke="none" fill="#000000" fill-rule="evenodd"></path></g></svg>