<svg id="svg" version="1.1" xmlns="http://www.w3.org/2000/svg" xmlns:xlink="http://www.w3.org/1999/xlink" width="400" height="388.00000000000006" viewBox="0, 0, 400,388.00000000000006"><g id="svgg"><path id="path0" d="M186.500 42.702 C 171.683 51.239,146.731 65.623,129.250 75.706 C 121.756 80.028,108.987 87.388,100.875 92.061 C 92.763 96.735,85.787 100.756,85.375 100.997 C 84.963 101.238,78.719 104.838,71.500 108.998 C 64.281 113.157,58.038 116.758,57.625 117.000 C 57.212 117.242,55.272 118.362,53.313 119.490 L 49.750 121.540 49.754 154.207 C 49.756 172.175,49.840 186.993,49.941 187.137 C 50.042 187.281,50.631 187.696,51.250 188.059 C 53.011 189.092,54.516 190.475,59.732 195.861 C 76.199 212.861,79.041 215.173,83.326 215.059 L 85.817 214.993 87.524 216.159 L 89.231 217.326 93.492 213.177 C 117.922 189.386,147.589 175.589,182.905 171.595 L 186.685 171.168 186.841 169.521 C 186.926 168.616,186.997 167.477,186.998 166.991 C 187.000 166.250,187.224 165.888,188.395 164.741 C 190.886 162.301,191.422 160.237,191.155 154.125 C 190.905 148.413,189.604 137.712,188.846 135.125 C 187.960 132.107,187.671 123.510,188.373 121.095 C 191.002 112.050,201.949 108.989,208.444 115.484 C 212.662 119.702,213.279 125.511,210.767 137.375 C 209.953 141.220,208.853 155.501,209.088 159.178 C 209.273 162.076,209.622 162.900,211.486 164.841 L 212.985 166.402 213.209 168.834 C 213.483 171.813,212.974 171.449,217.665 172.024 C 252.102 176.249,282.557 190.914,307.109 215.095 L 310.195 218.134 312.381 216.662 C 314.507 215.231,314.598 215.197,315.721 215.390 C 318.784 215.917,319.818 215.523,324.117 212.193 C 327.223 209.787,336.360 201.044,339.864 197.126 C 342.246 194.462,343.896 192.787,345.688 191.215 L 347.000 190.063 346.991 155.719 L 346.981 121.375 332.428 113.047 C 324.424 108.466,314.894 103.001,311.250 100.903 C 307.606 98.805,296.525 92.441,286.625 86.762 C 276.725 81.083,268.288 76.239,267.875 75.998 C 267.462 75.758,256.494 69.458,243.500 61.999 C 230.506 54.540,218.019 47.367,215.750 46.057 C 205.874 40.358,198.267 36.000,198.199 36.002 C 198.158 36.004,192.894 39.019,186.500 42.702 M177.000 204.742 C 153.368 209.350,130.909 220.867,116.188 235.927 L 115.002 237.140 140.734 255.508 C 156.826 266.994,166.918 274.040,167.671 274.316 C 171.669 275.780,177.069 273.631,179.355 269.665 C 180.838 267.092,180.711 268.316,182.133 242.750 C 182.618 234.019,183.293 221.981,183.633 216.000 C 184.396 202.548,184.392 203.494,183.688 203.524 C 183.378 203.537,180.369 204.085,177.000 204.742 M215.100 205.668 C 215.185 206.744,215.367 209.706,215.504 212.250 C 217.175 243.384,218.551 266.566,218.777 267.375 C 219.793 271.017,223.667 274.086,227.664 274.417 C 231.140 274.704,230.019 275.403,258.429 255.250 L 283.980 237.126 283.053 236.162 C 267.350 219.840,241.173 207.204,216.160 203.873 L 214.945 203.711 215.100 205.668 M49.810 231.036 C 49.901 248.546,49.814 247.650,51.846 251.889 C 52.665 253.597,53.844 255.294,56.644 258.794 L 60.357 263.435 61.060 261.655 C 62.926 256.936,70.471 242.742,73.155 238.900 L 73.837 237.925 73.231 237.436 C 70.612 235.323,70.290 234.859,70.119 232.942 C 69.710 228.366,66.637 225.691,50.677 216.021 L 49.729 215.446 49.810 231.036 M343.132 221.099 C 332.984 227.467,330.428 230.031,330.080 234.186 L 329.937 235.892 328.146 237.508 L 326.355 239.125 327.767 241.375 C 331.206 246.853,335.609 255.128,338.324 261.215 L 339.256 263.306 342.506 259.215 C 347.206 253.300,346.852 254.954,346.944 238.500 C 346.985 231.144,346.986 223.691,346.947 221.938 L 346.875 218.750 343.132 221.099 M95.085 262.313 C 90.964 269.228,87.126 277.778,84.498 285.896 C 83.790 288.085,83.108 290.131,82.983 290.443 C 82.782 290.945,83.469 291.889,88.890 298.568 C 92.264 302.724,98.739 310.709,103.279 316.312 C 110.065 324.687,111.609 326.461,111.955 326.282 C 112.186 326.162,118.506 324.297,126.000 322.136 C 140.892 317.841,141.326 317.669,142.970 315.379 C 145.968 311.205,145.954 306.280,142.936 302.840 C 142.490 302.331,133.012 293.810,121.875 283.903 C 110.737 273.996,100.398 264.791,98.899 263.446 C 95.693 260.569,96.059 260.678,95.085 262.313 M279.605 281.893 C 266.828 293.384,256.067 303.190,255.690 303.684 C 252.211 308.247,254.172 315.448,259.645 318.203 C 262.262 319.521,288.814 326.843,289.176 326.346 C 289.365 326.087,293.053 321.431,297.371 316.000 C 301.689 310.569,307.717 302.986,310.765 299.149 L 316.308 292.173 315.499 289.399 C 313.682 283.165,310.534 275.077,307.725 269.426 C 306.104 266.166,303.204 261.000,302.995 261.000 C 302.907 261.000,292.381 270.402,279.605 281.893 M232.313 351.932 C 232.828 351.986,233.672 351.986,234.188 351.932 C 234.703 351.878,234.281 351.834,233.250 351.834 C 232.219 351.834,231.797 351.878,232.313 351.932 " stroke="none" fill="#28201c" fill-rule="evenodd"></path><path id="path1" d="M196.095 0.256 C 191.004 0.792,187.860 1.898,178.000 6.623 C 174.631 8.237,170.750 10.094,169.375 10.750 C 168.000 11.406,164.231 13.208,161.000 14.754 C 153.368 18.404,149.997 20.015,146.625 21.623 C 145.113 22.344,141.231 24.199,138.000 25.745 C 134.769 27.292,131.000 29.094,129.625 29.750 C 128.250 30.406,124.481 32.208,121.250 33.753 C 118.019 35.298,114.250 37.098,112.875 37.753 C 111.500 38.408,108.969 39.617,107.250 40.440 C 102.505 42.713,93.184 47.164,90.375 48.499 C 89.000 49.152,85.119 51.008,81.750 52.623 C 78.381 54.238,74.669 56.011,73.500 56.564 C 72.331 57.116,69.308 58.566,66.782 59.784 C 64.255 61.003,62.159 62.000,62.124 62.000 C 61.604 62.000,51.043 67.442,49.170 68.675 C 42.963 72.762,37.701 79.508,35.134 86.666 C 34.297 89.001,34.202 89.389,29.757 108.687 C 28.926 112.296,27.576 118.146,26.758 121.687 C 25.941 125.228,24.755 130.375,24.124 133.125 C 23.493 135.875,22.820 138.800,22.629 139.625 C 22.438 140.450,21.829 143.094,21.275 145.500 C 19.628 152.661,17.344 162.570,15.745 169.499 C 14.920 173.074,13.566 178.952,12.735 182.562 C 11.904 186.172,10.717 191.319,10.098 194.000 C 9.478 196.681,8.816 199.550,8.627 200.375 C 7.657 204.592,6.111 211.308,4.771 217.125 C 0.509 235.624,0.630 234.901,0.825 240.584 C 0.975 244.987,1.325 246.992,2.628 250.915 C 4.746 257.293,4.943 257.568,27.411 285.375 C 30.579 289.296,35.544 295.463,67.872 335.625 C 97.781 372.783,100.180 375.743,101.466 377.079 C 106.562 382.374,113.974 386.201,121.657 387.504 C 124.594 388.002,125.424 388.006,201.125 387.930 L 277.625 387.853 279.875 387.316 C 287.702 385.449,293.481 382.286,298.671 377.027 C 299.433 376.256,306.428 367.711,314.215 358.038 C 322.003 348.365,331.109 337.059,334.451 332.913 C 337.792 328.767,343.375 321.831,346.856 317.500 C 350.337 313.169,357.278 304.549,362.280 298.344 C 387.063 267.604,392.467 260.841,393.554 259.204 C 398.133 252.306,400.220 243.457,399.232 235.125 C 398.965 232.871,398.598 231.156,395.595 218.125 C 394.708 214.275,393.531 209.156,392.979 206.750 C 392.428 204.344,391.308 199.478,390.491 195.937 C 384.414 169.612,383.111 163.958,382.008 159.125 C 381.443 156.650,380.822 153.950,380.627 153.125 C 380.433 152.300,379.757 149.375,379.126 146.625 C 378.495 143.875,377.309 138.728,376.492 135.187 C 374.601 127.000,372.267 116.868,370.977 111.250 C 370.425 108.844,369.811 106.200,369.613 105.375 C 369.144 103.425,367.717 97.185,366.870 93.375 C 363.885 79.957,357.534 71.579,346.023 65.870 C 343.590 64.664,304.275 45.779,272.125 30.374 C 270.337 29.517,264.600 26.763,259.375 24.253 C 254.150 21.743,248.750 19.154,247.375 18.500 C 244.963 17.353,242.907 16.366,234.875 12.501 C 232.813 11.508,230.000 10.159,228.625 9.502 C 227.250 8.846,224.662 7.607,222.875 6.749 C 213.776 2.381,212.611 1.903,208.826 0.988 C 204.982 0.059,200.440 -0.203,196.095 0.256 M204.625 12.867 C 208.177 13.444,207.893 13.326,223.750 20.875 C 226.844 22.348,230.387 24.035,231.625 24.623 C 242.420 29.755,249.680 33.213,252.625 34.627 C 254.550 35.551,256.800 36.617,257.625 36.996 C 258.450 37.374,261.600 38.867,264.625 40.312 C 267.650 41.758,272.488 44.066,275.375 45.442 C 293.590 54.121,297.114 55.798,301.500 57.877 C 304.181 59.148,312.394 63.055,319.750 66.559 C 327.106 70.063,334.756 73.698,336.750 74.635 C 346.366 79.158,349.963 82.302,353.008 88.845 C 353.991 90.960,354.244 91.871,356.131 100.125 C 356.759 102.875,357.437 105.800,357.637 106.625 C 357.837 107.450,358.511 110.375,359.136 113.125 C 359.760 115.875,360.941 121.022,361.758 124.563 C 366.260 144.050,369.104 156.390,370.244 161.375 C 370.810 163.850,371.942 168.772,372.759 172.313 C 376.746 189.584,377.180 191.468,381.248 209.125 C 381.786 211.463,382.899 216.300,383.721 219.875 C 384.543 223.450,385.691 228.400,386.272 230.875 C 388.290 239.462,387.628 245.133,383.888 251.294 C 383.331 252.212,378.319 258.611,372.750 265.514 C 367.181 272.417,357.135 284.884,350.426 293.220 C 343.716 301.555,336.910 310.005,335.301 311.997 C 333.692 313.989,329.345 319.389,325.642 323.997 C 321.939 328.605,315.644 336.425,311.653 341.375 C 307.663 346.325,302.543 352.681,300.276 355.500 C 290.720 367.383,289.949 368.284,288.095 369.758 C 285.085 372.150,282.042 373.649,278.125 374.669 C 276.450 375.105,273.109 375.125,200.250 375.125 L 124.125 375.125 122.000 374.550 C 115.010 372.658,112.572 370.662,103.576 359.472 C 100.303 355.401,94.700 348.440,91.125 344.004 C 87.550 339.568,81.306 331.815,77.250 326.775 C 69.909 317.654,53.960 297.848,37.997 278.027 C 15.656 250.288,17.388 252.506,16.162 250.078 C 13.141 244.096,12.615 238.530,14.363 231.030 C 14.703 229.570,15.666 225.394,16.502 221.750 C 17.339 218.106,18.464 213.213,19.002 210.875 C 23.215 192.587,24.401 187.445,27.492 174.063 C 28.309 170.522,29.490 165.375,30.114 162.625 C 30.739 159.875,31.412 156.950,31.612 156.125 C 31.811 155.300,32.425 152.656,32.977 150.250 C 34.645 142.982,37.186 131.963,41.509 113.250 C 43.088 106.414,44.245 101.359,45.379 96.342 C 47.088 88.780,49.464 84.241,53.581 80.671 C 56.541 78.104,55.618 78.596,73.750 69.936 C 78.219 67.802,85.813 64.173,90.625 61.871 C 95.438 59.569,100.612 57.097,102.125 56.379 C 103.638 55.660,108.700 53.243,113.375 51.007 C 118.050 48.771,125.588 45.169,130.125 43.001 C 134.662 40.833,143.550 36.585,149.875 33.560 C 156.200 30.536,165.031 26.316,169.500 24.182 C 173.969 22.048,180.438 18.960,183.875 17.319 C 193.520 12.713,197.896 11.775,204.625 12.867 M197.675 112.524 C 193.995 113.390,190.438 116.518,188.954 120.190 C 188.011 122.527,188.083 131.350,189.074 134.797 C 190.465 139.638,191.877 155.646,191.281 159.819 C 190.935 162.238,190.417 163.256,188.645 164.991 C 187.474 166.138,187.250 166.500,187.248 167.241 C 187.247 167.727,187.176 168.866,187.091 169.771 L 186.935 171.418 183.155 171.845 C 147.359 175.893,117.598 189.823,93.219 213.942 L 89.313 217.806 87.273 216.376 L 85.233 214.947 83.657 215.244 C 80.998 215.746,79.925 215.285,75.543 211.760 C 72.053 208.953,59.642 196.522,57.239 193.427 C 56.941 193.043,55.894 192.093,54.911 191.316 C 53.929 190.539,53.040 189.765,52.936 189.596 C 52.832 189.427,52.326 189.039,51.811 188.734 C 51.296 188.429,50.481 187.919,50.000 187.601 C 46.374 185.200,39.647 186.126,36.285 189.489 C 31.392 194.382,32.370 204.357,38.116 208.177 C 38.671 208.546,39.462 209.147,39.875 209.513 C 41.000 210.510,44.885 212.823,48.190 214.463 C 53.256 216.976,62.973 223.238,66.750 226.423 C 69.582 228.811,70.246 230.031,70.249 232.850 L 70.250 234.325 72.171 236.113 L 74.091 237.902 73.192 239.388 C 70.115 244.474,68.349 247.524,66.757 250.500 C 64.918 253.938,64.558 254.679,61.972 260.348 L 60.502 263.570 62.350 265.848 C 63.366 267.100,64.794 268.856,65.522 269.750 C 66.251 270.644,68.030 272.837,69.477 274.625 C 71.885 277.601,75.414 281.949,80.596 288.325 L 82.587 290.774 84.268 285.700 C 87.294 276.562,94.719 260.625,95.949 260.625 C 96.081 260.625,97.581 261.863,99.282 263.377 C 136.224 296.248,143.342 302.656,143.899 303.538 C 146.412 307.519,145.855 312.771,142.545 316.309 C 140.878 318.091,140.932 318.072,125.770 322.469 C 118.160 324.677,111.883 326.533,111.821 326.596 C 111.642 326.775,125.270 343.446,127.037 345.210 C 130.423 348.589,134.345 350.577,139.750 351.651 C 142.908 352.279,258.407 352.021,261.705 351.379 C 269.527 349.856,272.364 347.620,282.162 335.250 C 289.276 326.269,288.844 326.860,288.294 326.848 C 287.752 326.835,261.766 319.349,260.203 318.755 C 254.052 316.418,251.624 307.863,255.771 303.140 C 256.625 302.167,302.624 260.683,302.999 260.548 C 303.514 260.362,308.485 269.990,311.159 276.355 C 312.377 279.256,315.066 286.998,316.411 291.482 C 316.504 291.791,316.565 291.791,316.867 291.482 C 318.220 290.097,339.214 263.381,339.039 263.268 C 338.917 263.189,338.452 262.281,338.005 261.250 C 335.703 255.930,330.647 246.459,327.358 241.305 L 325.966 239.125 327.831 237.375 C 329.675 235.644,329.697 235.608,329.839 234.125 C 330.047 231.964,330.645 230.440,331.799 229.129 C 333.667 227.007,342.205 221.005,347.000 218.444 C 356.527 213.355,360.110 211.090,362.504 208.646 C 373.991 196.917,361.860 180.786,348.081 189.467 C 347.506 189.829,346.944 190.306,346.831 190.526 C 346.718 190.747,345.817 191.617,344.830 192.460 C 343.843 193.303,341.915 195.260,340.546 196.809 C 335.716 202.273,327.881 209.724,323.299 213.213 C 320.270 215.518,319.389 215.849,316.737 215.677 L 314.573 215.537 312.360 217.010 L 310.146 218.483 307.011 215.427 C 281.860 190.914,252.761 176.816,218.159 172.381 C 212.601 171.669,213.233 172.070,212.959 169.084 L 212.735 166.652 211.236 165.091 C 209.337 163.114,209.001 162.285,208.830 159.158 C 208.611 155.169,209.695 141.006,210.517 137.125 C 211.985 130.190,212.373 124.821,211.621 121.865 C 209.940 115.267,203.721 111.101,197.675 112.524 M184.498 203.938 C 184.490 206.975,180.945 266.351,180.726 267.125 C 179.345 272.007,175.604 274.875,170.625 274.871 C 167.021 274.867,169.714 276.582,140.015 255.375 L 114.457 237.125 116.791 234.911 C 133.510 219.047,153.573 208.960,177.500 204.386 C 184.519 203.044,184.501 203.045,184.498 203.938 M219.261 204.110 C 243.358 207.887,269.652 221.074,283.933 236.543 L 284.491 237.148 282.183 238.782 C 280.914 239.681,269.583 247.715,257.005 256.636 C 244.426 265.558,233.571 273.165,232.883 273.541 C 227.802 276.320,220.522 273.560,218.790 268.200 C 218.214 266.414,218.375 268.835,216.381 232.125 C 215.634 218.375,214.957 206.309,214.876 205.313 C 214.763 203.922,214.804 203.500,215.052 203.501 C 215.230 203.501,217.124 203.775,219.261 204.110 " stroke="none" fill="#eb5c2c" fill-rule="evenodd"></path><path id="path2" d="M208.813 155.875 C 208.816 156.425,208.867 156.621,208.927 156.310 C 208.987 155.999,208.984 155.549,208.922 155.310 C 208.859 155.071,208.810 155.325,208.813 155.875 M208.813 158.875 C 208.816 159.425,208.867 159.621,208.927 159.310 C 208.987 158.999,208.984 158.549,208.922 158.310 C 208.859 158.071,208.810 158.325,208.813 158.875 M343.363 193.563 L 342.375 194.625 343.438 193.637 C 344.426 192.718,344.615 192.500,344.426 192.500 C 344.385 192.500,343.907 192.978,343.363 193.563 M63.750 200.375 C 64.216 200.856,64.654 201.250,64.723 201.250 C 64.792 201.250,64.466 200.856,64.000 200.375 C 63.534 199.894,63.096 199.500,63.027 199.500 C 62.958 199.500,63.284 199.894,63.750 200.375 M332.996 204.438 L 330.375 207.125 333.063 204.504 C 335.559 202.070,335.864 201.750,335.683 201.750 C 335.646 201.750,334.437 202.959,332.996 204.438 M307.125 215.500 C 308.080 216.463,308.918 217.250,308.987 217.250 C 309.055 217.250,308.330 216.463,307.375 215.500 C 306.420 214.537,305.582 213.750,305.513 213.750 C 305.445 213.750,306.170 214.537,307.125 215.500 M220.250 270.828 C 220.250 270.871,220.616 271.237,221.063 271.641 L 221.875 272.375 221.141 271.563 C 220.456 270.805,220.250 270.635,220.250 270.828 M145.318 309.000 C 145.318 309.619,145.367 309.872,145.426 309.563 C 145.486 309.253,145.486 308.747,145.426 308.438 C 145.367 308.128,145.318 308.381,145.318 309.000 " stroke="none" fill="#906850" fill-rule="evenodd"></path><path id="path3" d="M199.194 112.183 C 199.782 112.236,200.682 112.235,201.194 112.182 C 201.706 112.128,201.225 112.085,200.125 112.086 C 199.025 112.087,198.606 112.131,199.194 112.183 M195.882 112.781 C 191.637 114.502,187.907 119.342,188.020 122.983 C 188.031 123.336,188.197 122.900,188.389 122.015 C 189.312 117.759,192.551 114.193,196.842 112.710 C 197.548 112.466,197.900 112.269,197.625 112.272 C 197.350 112.275,196.566 112.504,195.882 112.781 M203.827 112.839 C 206.650 113.872,209.170 116.097,210.494 118.726 C 211.650 121.020,211.821 121.817,211.993 125.750 L 212.164 129.625 212.207 126.365 C 212.304 119.026,208.519 113.268,203.000 112.359 C 202.468 112.272,202.792 112.460,203.827 112.839 M188.068 130.750 C 188.068 131.369,188.117 131.622,188.176 131.313 C 188.236 131.003,188.236 130.497,188.176 130.188 C 188.117 129.878,188.068 130.131,188.068 130.750 M211.808 130.500 C 211.808 130.981,211.859 131.178,211.922 130.938 C 211.985 130.697,211.985 130.303,211.922 130.063 C 211.859 129.822,211.808 130.019,211.808 130.500 M188.266 132.375 C 188.261 132.650,188.529 133.831,188.861 135.000 C 189.193 136.169,189.468 136.956,189.474 136.750 C 189.479 136.544,189.211 135.363,188.878 134.125 C 188.546 132.887,188.270 132.100,188.266 132.375 M210.687 136.413 C 210.096 139.066,210.164 139.622,210.776 137.132 C 211.045 136.035,211.234 134.983,211.195 134.794 C 211.157 134.605,210.928 135.333,210.687 136.413 M189.813 139.625 C 189.816 140.175,189.867 140.371,189.927 140.060 C 189.987 139.749,189.984 139.299,189.922 139.060 C 189.859 138.821,189.810 139.075,189.813 139.625 M210.068 141.250 C 210.068 141.869,210.117 142.122,210.176 141.813 C 210.236 141.503,210.236 140.997,210.176 140.688 C 210.117 140.378,210.068 140.631,210.068 141.250 M190.068 141.750 C 190.068 142.369,190.117 142.622,190.176 142.313 C 190.236 142.003,190.236 141.497,190.176 141.188 C 190.117 140.878,190.068 141.131,190.068 141.750 M209.822 143.625 C 209.823 144.313,209.872 144.564,209.929 144.184 C 209.987 143.804,209.985 143.242,209.926 142.934 C 209.867 142.627,209.820 142.938,209.822 143.625 M190.318 144.000 C 190.318 144.619,190.367 144.872,190.426 144.563 C 190.486 144.253,190.486 143.747,190.426 143.438 C 190.367 143.128,190.318 143.381,190.318 144.000 M190.568 146.250 C 190.568 146.869,190.617 147.122,190.676 146.813 C 190.736 146.503,190.736 145.997,190.676 145.688 C 190.617 145.378,190.568 145.631,190.568 146.250 M209.568 146.250 C 209.568 146.869,209.617 147.122,209.676 146.813 C 209.736 146.503,209.736 145.997,209.676 145.688 C 209.617 145.378,209.568 145.631,209.568 146.250 M190.818 148.750 C 190.818 149.369,190.867 149.622,190.926 149.313 C 190.986 149.003,190.986 148.497,190.926 148.188 C 190.867 147.878,190.818 148.131,190.818 148.750 M209.325 149.250 C 209.325 150.006,209.372 150.316,209.429 149.938 C 209.486 149.559,209.486 148.941,209.429 148.563 C 209.372 148.184,209.325 148.494,209.325 149.250 M191.077 151.625 C 191.079 152.450,191.126 152.757,191.181 152.308 C 191.237 151.859,191.236 151.184,191.179 150.808 C 191.122 150.432,191.076 150.800,191.077 151.625 M209.084 152.750 C 209.084 153.781,209.128 154.203,209.182 153.688 C 209.236 153.172,209.236 152.328,209.182 151.813 C 209.128 151.297,209.084 151.719,209.084 152.750 M191.337 156.000 C 191.337 157.169,191.380 157.647,191.433 157.063 C 191.486 156.478,191.486 155.522,191.433 154.938 C 191.380 154.353,191.337 154.831,191.337 156.000 M190.957 160.031 C 190.740 161.884,190.088 163.083,188.395 164.741 C 187.044 166.065,187.001 166.148,187.044 167.366 L 187.087 168.625 187.185 167.513 C 187.271 166.547,187.495 166.176,188.884 164.704 C 190.593 162.892,191.368 161.133,191.202 159.443 C 191.140 158.811,191.084 158.945,190.957 160.031 M209.035 160.750 C 209.022 161.231,209.225 162.097,209.487 162.674 C 209.992 163.785,213.000 167.209,213.000 166.672 C 213.000 166.498,212.431 165.798,211.735 165.116 C 210.110 163.521,209.506 162.533,209.259 161.062 C 209.080 160.001,209.056 159.968,209.035 160.750 M213.075 169.000 C 213.075 169.756,213.122 170.066,213.179 169.688 C 213.236 169.309,213.236 168.691,213.179 168.313 C 213.122 167.934,213.075 168.244,213.075 169.000 M186.792 170.048 L 186.750 171.221 185.688 171.317 L 184.625 171.413 185.695 171.456 C 186.918 171.506,187.084 171.289,186.934 169.839 C 186.838 168.912,186.832 168.920,186.792 170.048 M213.279 171.188 C 213.257 171.621,213.379 171.743,213.813 171.721 C 214.211 171.700,214.252 171.660,213.953 171.581 C 213.721 171.519,213.481 171.279,213.419 171.047 C 213.340 170.748,213.300 170.789,213.279 171.188 M183.190 171.677 C 183.501 171.737,183.951 171.734,184.190 171.672 C 184.429 171.609,184.175 171.560,183.625 171.563 C 183.075 171.566,182.879 171.617,183.190 171.677 M180.940 171.927 C 181.251 171.987,181.701 171.984,181.940 171.922 C 182.179 171.859,181.925 171.810,181.375 171.813 C 180.825 171.816,180.629 171.867,180.940 171.927 M214.938 171.926 C 215.247 171.986,215.753 171.986,216.063 171.926 C 216.372 171.867,216.119 171.818,215.500 171.818 C 214.881 171.818,214.628 171.867,214.938 171.926 M178.940 172.177 C 179.251 172.237,179.701 172.234,179.940 172.172 C 180.179 172.109,179.925 172.060,179.375 172.063 C 178.825 172.066,178.629 172.117,178.940 172.177 M217.313 172.172 C 217.553 172.235,217.947 172.235,218.188 172.172 C 218.428 172.109,218.231 172.058,217.750 172.058 C 217.269 172.058,217.072 172.109,217.313 172.172 M176.940 172.427 C 177.251 172.487,177.701 172.484,177.940 172.422 C 178.179 172.359,177.925 172.310,177.375 172.313 C 176.825 172.316,176.629 172.367,176.940 172.427 M219.313 172.422 C 219.553 172.485,219.947 172.485,220.188 172.422 C 220.428 172.359,220.231 172.308,219.750 172.308 C 219.269 172.308,219.072 172.359,219.313 172.422 M174.000 172.750 C 173.336 172.890,173.276 172.939,173.750 172.953 C 174.094 172.963,174.825 172.878,175.375 172.764 C 176.209 172.592,176.250 172.558,175.625 172.562 C 175.213 172.564,174.481 172.649,174.000 172.750 M221.063 172.672 C 221.303 172.735,221.697 172.735,221.938 172.672 C 222.178 172.609,221.981 172.558,221.500 172.558 C 221.019 172.558,220.822 172.609,221.063 172.672 M228.875 174.000 C 229.933 174.269,230.840 174.269,230.000 174.000 C 229.656 173.890,229.094 173.802,228.750 173.804 C 228.189 173.809,228.201 173.829,228.875 174.000 M164.250 174.625 C 163.631 174.804,163.294 174.960,163.500 174.971 C 163.706 174.981,164.438 174.834,165.125 174.643 C 165.813 174.451,166.150 174.296,165.875 174.297 C 165.600 174.298,164.869 174.446,164.250 174.625 M233.125 174.893 C 233.813 175.084,234.544 175.232,234.750 175.223 C 234.956 175.213,234.563 175.049,233.875 174.857 C 233.188 174.666,232.456 174.518,232.250 174.527 C 232.044 174.537,232.438 174.701,233.125 174.893 M159.500 175.763 C 155.417 176.890,149.236 178.819,149.348 178.931 C 149.404 178.987,150.783 178.614,152.412 178.101 C 154.042 177.589,157.119 176.689,159.250 176.100 C 161.381 175.512,162.900 175.033,162.625 175.035 C 162.350 175.037,160.944 175.364,159.500 175.763 M236.375 175.643 C 237.063 175.834,237.738 175.981,237.875 175.969 C 238.298 175.933,236.157 175.288,235.625 175.292 C 235.350 175.293,235.688 175.451,236.375 175.643 M239.750 176.517 C 245.312 178.239,248.069 179.015,248.192 178.891 C 248.270 178.814,248.252 178.750,248.154 178.750 C 248.055 178.750,246.152 178.200,243.925 177.528 C 241.697 176.856,239.481 176.240,239.000 176.160 C 238.519 176.080,238.856 176.240,239.750 176.517 M262.500 184.625 C 262.844 184.822,263.238 184.982,263.375 184.982 C 263.512 184.982,263.344 184.822,263.000 184.625 C 262.656 184.428,262.262 184.268,262.125 184.268 C 261.988 184.268,262.156 184.428,262.500 184.625 M133.500 185.250 C 133.019 185.513,132.738 185.729,132.875 185.729 C 133.012 185.729,133.519 185.513,134.000 185.250 C 134.481 184.987,134.762 184.771,134.625 184.771 C 134.488 184.771,133.981 184.987,133.500 185.250 M266.250 186.375 C 266.869 186.706,267.488 186.977,267.625 186.977 C 267.762 186.977,267.369 186.706,266.750 186.375 C 266.131 186.044,265.512 185.773,265.375 185.773 C 265.238 185.773,265.631 186.044,266.250 186.375 M128.188 187.891 C 127.534 188.231,127.000 188.566,127.000 188.634 C 127.000 188.702,127.563 188.473,128.250 188.125 C 128.938 187.777,129.500 187.437,129.500 187.371 C 129.500 187.205,129.522 187.197,128.188 187.891 M268.500 187.369 C 268.500 187.437,269.288 187.890,270.250 188.375 C 271.212 188.860,272.000 189.200,272.000 189.131 C 272.000 189.063,271.212 188.610,270.250 188.125 C 269.288 187.640,268.500 187.300,268.500 187.369 M124.938 189.643 C 124.003 190.150,124.060 190.361,125.000 189.875 C 125.412 189.662,125.750 189.434,125.750 189.369 C 125.750 189.208,125.723 189.217,124.938 189.643 M273.250 189.862 C 273.250 189.931,273.587 190.162,274.000 190.375 C 274.413 190.588,274.750 190.707,274.750 190.638 C 274.750 190.569,274.413 190.338,274.000 190.125 C 273.587 189.912,273.250 189.793,273.250 189.862 M123.188 190.643 C 122.253 191.150,122.310 191.361,123.250 190.875 C 123.662 190.662,124.000 190.434,124.000 190.369 C 124.000 190.208,123.973 190.217,123.188 190.643 M345.470 191.519 L 344.375 192.538 345.563 191.591 C 346.216 191.070,346.750 190.612,346.750 190.572 C 346.750 190.379,346.477 190.581,345.470 191.519 M59.750 196.000 C 62.395 198.750,64.615 201.000,64.684 201.000 C 64.753 201.000,62.645 198.750,60.000 196.000 C 57.355 193.250,55.135 191.000,55.066 191.000 C 54.997 191.000,57.105 193.250,59.750 196.000 M341.860 194.938 C 340.640 196.278,339.904 197.150,340.224 196.875 C 340.933 196.266,344.348 192.500,344.191 192.500 C 344.129 192.500,343.080 193.597,341.860 194.938 M278.875 193.130 C 279.150 193.353,279.600 193.647,279.875 193.782 L 280.375 194.028 279.875 193.620 C 279.600 193.397,279.150 193.103,278.875 192.968 L 278.375 192.722 278.875 193.130 M116.813 194.529 C 115.960 195.074,115.685 195.441,116.438 195.027 C 117.011 194.712,117.910 194.017,117.750 194.012 C 117.681 194.010,117.259 194.243,116.813 194.529 M282.983 195.702 C 283.318 195.974,283.937 196.387,284.358 196.619 L 285.125 197.042 284.517 196.548 C 284.182 196.276,283.563 195.863,283.142 195.631 L 282.375 195.208 282.983 195.702 M113.063 197.025 C 112.478 197.439,112.000 197.833,112.000 197.901 C 112.000 197.969,112.506 197.676,113.125 197.250 C 113.744 196.824,114.250 196.425,114.250 196.363 C 114.250 196.191,114.203 196.217,113.063 197.025 M285.250 197.101 C 285.250 197.170,285.756 197.574,286.375 198.000 C 286.994 198.426,287.500 198.718,287.500 198.649 C 287.500 198.580,286.994 198.176,286.375 197.750 C 285.756 197.324,285.250 197.032,285.250 197.101 M338.849 198.313 C 338.082 199.143,337.185 200.326,337.664 199.875 C 338.198 199.372,339.805 197.500,339.703 197.500 C 339.645 197.500,339.261 197.866,338.849 198.313 M109.782 199.360 C 108.769 200.103,107.813 200.853,107.657 201.029 C 107.502 201.204,107.769 201.062,108.250 200.714 C 108.731 200.365,109.716 199.657,110.438 199.141 C 111.562 198.338,111.951 197.984,111.688 198.005 C 111.653 198.008,110.796 198.618,109.782 199.360 M288.561 199.396 C 288.642 199.528,289.244 200.020,289.898 200.490 C 290.552 200.960,291.021 201.236,290.939 201.104 C 290.858 200.972,290.256 200.480,289.602 200.010 C 288.948 199.540,288.479 199.264,288.561 199.396 M332.747 204.438 L 328.375 208.875 332.813 204.503 C 335.253 202.098,337.250 200.101,337.250 200.065 C 337.250 199.887,336.810 200.315,332.747 204.438 M67.625 204.214 C 69.275 205.903,71.525 208.085,72.625 209.064 C 75.019 211.193,74.676 210.843,69.000 205.365 C 65.559 202.044,65.265 201.798,67.625 204.214 M106.125 202.152 L 105.125 203.047 106.188 202.253 C 107.102 201.569,107.432 201.239,107.188 201.254 C 107.153 201.256,106.675 201.660,106.125 202.152 M293.107 202.798 C 297.364 206.385,297.877 206.793,296.500 205.497 C 295.744 204.785,294.450 203.700,293.625 203.086 C 292.800 202.472,292.567 202.343,293.107 202.798 M183.909 203.441 C 184.065 203.542,184.248 203.850,184.317 204.125 C 184.413 204.508,184.449 204.464,184.471 203.938 C 184.492 203.437,184.381 203.251,184.063 203.254 C 183.785 203.256,183.729 203.325,183.909 203.441 M99.500 207.563 C 98.056 208.827,95.161 211.539,93.066 213.591 L 89.258 217.322 88.254 216.657 C 87.702 216.292,87.250 216.049,87.250 216.118 C 87.250 216.187,87.701 216.541,88.251 216.905 L 89.252 217.568 93.189 213.722 C 95.354 211.606,98.278 208.879,99.688 207.661 C 101.927 205.727,102.447 205.227,102.188 205.257 C 102.153 205.261,100.944 206.299,99.500 207.563 M215.058 206.500 C 215.058 206.981,215.109 207.178,215.172 206.938 C 215.235 206.697,215.235 206.303,215.172 206.063 C 215.109 205.822,215.058 206.019,215.058 206.500 M298.750 207.625 C 299.216 208.106,299.654 208.500,299.723 208.500 C 299.792 208.500,299.466 208.106,299.000 207.625 C 298.534 207.144,298.096 206.750,298.027 206.750 C 297.958 206.750,298.284 207.144,298.750 207.625 M184.058 208.000 C 184.058 208.481,184.109 208.678,184.172 208.438 C 184.235 208.197,184.235 207.803,184.172 207.563 C 184.109 207.322,184.058 207.519,184.058 208.000 M300.000 208.556 C 300.000 208.616,301.266 209.833,302.813 211.259 C 304.359 212.685,305.344 213.536,305.000 213.151 C 304.241 212.299,300.000 208.402,300.000 208.556 M327.237 209.688 L 326.375 210.625 327.313 209.763 C 327.828 209.290,328.250 208.868,328.250 208.826 C 328.250 208.635,328.038 208.815,327.237 209.688 M215.313 210.875 C 215.316 211.425,215.367 211.621,215.427 211.310 C 215.487 210.999,215.484 210.549,215.422 210.310 C 215.359 210.071,215.310 210.325,215.313 210.875 M324.860 211.575 C 324.165 212.153,323.208 212.942,322.735 213.329 C 321.941 213.979,321.961 213.974,323.000 213.267 C 324.147 212.486,326.477 210.520,326.250 210.524 C 326.181 210.525,325.556 210.998,324.860 211.575 M183.813 212.375 C 183.816 212.925,183.867 213.121,183.927 212.810 C 183.987 212.499,183.984 212.049,183.922 211.810 C 183.859 211.571,183.810 211.825,183.813 212.375 M77.097 212.830 C 77.632 213.299,78.419 213.884,78.847 214.130 C 79.939 214.758,79.634 214.482,77.750 213.137 C 76.588 212.307,76.402 212.220,77.097 212.830 M307.492 215.625 C 310.021 218.352,310.204 218.528,309.313 217.375 C 308.887 216.825,307.886 215.756,307.088 215.000 C 305.859 213.836,305.921 213.932,307.492 215.625 M144.688 215.390 C 143.209 216.140,142.000 216.811,142.000 216.879 C 142.000 216.991,147.475 214.332,147.729 214.096 C 148.111 213.743,147.006 214.213,144.688 215.390 M251.771 214.346 C 252.025 214.579,255.500 216.243,255.500 216.131 C 255.500 215.992,252.111 214.250,251.840 214.250 C 251.744 214.250,251.714 214.293,251.771 214.346 M215.563 215.625 C 215.566 216.175,215.617 216.371,215.677 216.060 C 215.737 215.749,215.734 215.299,215.672 215.060 C 215.609 214.821,215.560 215.075,215.563 215.625 M50.250 215.762 C 51.117 216.351,51.611 216.522,51.000 216.022 C 50.656 215.741,50.263 215.510,50.125 215.509 C 49.987 215.508,50.044 215.622,50.250 215.762 M183.563 216.875 C 183.566 217.425,183.617 217.621,183.677 217.310 C 183.737 216.999,183.734 216.549,183.672 216.310 C 183.609 216.071,183.560 216.325,183.563 216.875 M215.808 220.000 C 215.808 220.481,215.859 220.678,215.922 220.438 C 215.985 220.197,215.985 219.803,215.922 219.563 C 215.859 219.322,215.808 219.519,215.808 220.000 M57.375 220.130 C 57.650 220.353,58.100 220.647,58.375 220.782 L 58.875 221.028 58.375 220.620 C 58.100 220.397,57.650 220.103,57.375 219.968 L 56.875 219.722 57.375 220.130 M135.563 220.529 C 134.710 221.074,134.435 221.441,135.188 221.027 C 135.761 220.712,136.660 220.017,136.500 220.012 C 136.431 220.010,136.009 220.243,135.563 220.529 M183.308 221.500 C 183.308 221.981,183.359 222.178,183.422 221.938 C 183.485 221.697,183.485 221.303,183.422 221.063 C 183.359 220.822,183.308 221.019,183.308 221.500 M342.063 221.529 C 341.210 222.074,340.935 222.441,341.688 222.027 C 342.261 221.712,343.160 221.017,343.000 221.012 C 342.931 221.010,342.509 221.243,342.063 221.529 M132.685 222.380 C 131.758 223.002,131.000 223.565,131.000 223.632 C 131.000 223.699,131.787 223.230,132.750 222.590 C 134.281 221.572,134.686 221.250,134.435 221.250 C 134.399 221.250,133.611 221.759,132.685 222.380 M61.250 222.601 C 61.250 222.670,61.756 223.074,62.375 223.500 C 62.994 223.926,63.500 224.218,63.500 224.149 C 63.500 224.080,62.994 223.676,62.375 223.250 C 61.756 222.824,61.250 222.532,61.250 222.601 M267.500 223.351 C 267.500 223.420,268.006 223.824,268.625 224.250 C 269.244 224.676,269.750 224.968,269.750 224.899 C 269.750 224.830,269.244 224.426,268.625 224.000 C 268.006 223.574,267.500 223.282,267.500 223.351 M216.058 224.500 C 216.058 224.981,216.109 225.178,216.172 224.938 C 216.235 224.697,216.235 224.303,216.172 224.063 C 216.109 223.822,216.058 224.019,216.058 224.500 M129.125 224.897 L 128.375 225.541 129.188 225.004 C 129.634 224.708,130.000 224.417,130.000 224.358 C 130.000 224.171,129.894 224.236,129.125 224.897 M336.063 225.638 C 335.066 226.396,334.250 227.072,334.250 227.139 C 334.250 227.207,335.094 226.627,336.125 225.851 C 337.754 224.625,338.196 224.235,337.938 224.255 C 337.903 224.257,337.059 224.880,336.063 225.638 M64.750 225.058 C 64.750 225.132,65.557 225.853,66.544 226.659 C 67.531 227.465,68.656 228.625,69.044 229.236 C 69.432 229.848,69.750 230.255,69.750 230.141 C 69.750 229.599,68.579 228.154,67.177 226.966 C 64.793 224.947,64.750 224.914,64.750 225.058 M183.058 225.750 C 183.058 226.231,183.109 226.428,183.172 226.188 C 183.235 225.947,183.235 225.553,183.172 225.313 C 183.109 225.072,183.058 225.269,183.058 225.750 M270.250 225.284 C 270.814 225.857,275.000 229.046,275.000 228.902 C 275.000 228.791,271.216 225.807,270.250 225.155 C 269.917 224.930,269.917 224.945,270.250 225.284 M124.667 228.233 C 118.998 232.781,114.487 237.058,115.014 237.384 C 115.205 237.502,115.264 237.475,115.165 237.315 C 114.895 236.877,119.485 232.690,126.392 227.076 C 126.933 226.636,127.319 226.273,127.250 226.268 C 127.181 226.264,126.019 227.148,124.667 228.233 M332.750 228.293 C 332.095 228.888,331.938 229.103,332.375 228.809 C 333.065 228.344,334.211 227.236,333.976 227.261 C 333.921 227.267,333.369 227.731,332.750 228.293 M216.308 229.000 C 216.308 229.481,216.359 229.678,216.422 229.438 C 216.485 229.197,216.485 228.803,216.422 228.563 C 216.359 228.322,216.308 228.519,216.308 229.000 M182.813 230.125 C 182.816 230.675,182.867 230.871,182.927 230.560 C 182.987 230.249,182.984 229.799,182.922 229.560 C 182.859 229.321,182.810 229.575,182.813 230.125 M330.997 230.313 C 330.725 230.759,330.501 231.228,330.501 231.354 C 330.500 231.639,330.535 231.592,331.196 230.438 C 331.854 229.289,331.686 229.184,330.997 230.313 M277.625 231.128 C 278.175 231.645,279.835 233.187,281.315 234.554 C 282.816 235.941,283.931 237.159,283.839 237.309 C 283.732 237.481,283.793 237.503,284.007 237.371 C 284.362 237.151,281.462 234.216,278.238 231.531 C 277.351 230.792,277.075 230.611,277.625 231.128 M70.058 232.500 C 70.058 232.981,70.109 233.178,70.172 232.938 C 70.235 232.697,70.235 232.303,70.172 232.063 C 70.109 231.822,70.058 232.019,70.058 232.500 M216.563 233.625 C 216.566 234.175,216.617 234.371,216.677 234.060 C 216.737 233.749,216.734 233.299,216.672 233.060 C 216.609 232.821,216.560 233.075,216.563 233.625 M182.563 234.625 C 182.566 235.175,182.617 235.371,182.677 235.060 C 182.737 234.749,182.734 234.299,182.672 234.060 C 182.609 233.821,182.560 234.075,182.563 234.625 M71.815 236.162 C 72.673 236.938,73.477 237.665,73.602 237.776 C 73.735 237.895,73.689 238.164,73.491 238.427 C 73.168 238.854,73.174 238.855,73.628 238.439 C 74.072 238.033,71.282 234.816,70.440 234.762 C 70.338 234.755,70.956 235.385,71.815 236.162 M327.982 237.408 C 326.989 238.320,326.288 239.023,326.427 238.971 C 326.749 238.848,330.119 235.750,329.931 235.750 C 329.853 235.750,328.976 236.496,327.982 237.408 M115.500 237.591 C 115.500 237.660,115.838 237.956,116.250 238.250 C 116.662 238.544,117.000 238.728,117.000 238.659 C 117.000 238.590,116.662 238.294,116.250 238.000 C 115.838 237.706,115.500 237.522,115.500 237.591 M216.808 238.250 C 216.808 238.731,216.859 238.928,216.922 238.688 C 216.985 238.447,216.985 238.053,216.922 237.813 C 216.859 237.572,216.808 237.769,216.808 238.250 M281.875 238.647 L 281.125 239.291 281.938 238.754 C 282.384 238.458,282.750 238.167,282.750 238.108 C 282.750 237.921,282.644 237.986,281.875 238.647 M182.308 239.250 C 182.308 239.731,182.359 239.928,182.422 239.688 C 182.485 239.447,182.485 239.053,182.422 238.813 C 182.359 238.572,182.308 238.769,182.308 239.250 M117.250 238.841 C 117.250 238.910,117.588 239.206,118.000 239.500 C 118.412 239.794,118.750 239.978,118.750 239.909 C 118.750 239.840,118.412 239.544,118.000 239.250 C 117.588 238.956,117.250 238.772,117.250 238.841 M72.668 239.563 C 71.824 240.944,70.957 242.603,71.199 242.375 C 71.520 242.072,73.266 239.000,73.117 239.000 C 73.059 239.000,72.857 239.253,72.668 239.563 M280.125 239.897 L 279.375 240.541 280.188 240.004 C 280.634 239.708,281.000 239.417,281.000 239.358 C 281.000 239.171,280.894 239.236,280.125 239.897 M326.468 239.625 C 326.603 239.900,326.897 240.350,327.120 240.625 L 327.528 241.125 327.282 240.625 C 327.147 240.350,326.853 239.900,326.630 239.625 L 326.222 239.125 326.468 239.625 M119.000 240.091 C 119.000 240.160,119.338 240.456,119.750 240.750 C 120.162 241.044,120.500 241.228,120.500 241.159 C 120.500 241.090,120.162 240.794,119.750 240.500 C 119.338 240.206,119.000 240.022,119.000 240.091 M278.375 241.147 L 277.625 241.791 278.438 241.254 C 278.884 240.958,279.250 240.667,279.250 240.608 C 279.250 240.421,279.144 240.486,278.375 241.147 M120.750 241.341 C 120.750 241.410,121.088 241.706,121.500 242.000 C 121.912 242.294,122.250 242.478,122.250 242.409 C 122.250 242.340,121.912 242.044,121.500 241.750 C 121.088 241.456,120.750 241.272,120.750 241.341 M217.063 242.625 C 217.066 243.175,217.117 243.371,217.177 243.060 C 217.237 242.749,217.234 242.299,217.172 242.060 C 217.109 241.821,217.060 242.075,217.063 242.625 M275.628 243.019 C 274.668 243.706,273.768 244.396,273.628 244.552 C 273.331 244.886,276.703 242.587,277.241 242.089 C 277.935 241.447,277.370 241.773,275.628 243.019 M122.500 242.591 C 122.500 242.660,122.838 242.956,123.250 243.250 C 123.662 243.544,124.000 243.728,124.000 243.659 C 124.000 243.590,123.662 243.294,123.250 243.000 C 122.838 242.706,122.500 242.522,122.500 242.591 M182.058 243.500 C 182.058 243.981,182.109 244.178,182.172 243.938 C 182.235 243.697,182.235 243.303,182.172 243.063 C 182.109 242.822,182.058 243.019,182.058 243.500 M124.250 243.841 C 124.250 243.910,124.588 244.206,125.000 244.500 C 125.412 244.794,125.750 244.978,125.750 244.909 C 125.750 244.840,125.412 244.544,125.000 244.250 C 124.588 243.956,124.250 243.772,124.250 243.841 M272.375 245.397 L 271.625 246.041 272.438 245.504 C 272.884 245.208,273.250 244.917,273.250 244.858 C 273.250 244.671,273.144 244.736,272.375 245.397 M126.000 245.091 C 126.000 245.160,126.338 245.456,126.750 245.750 C 127.162 246.044,127.500 246.228,127.500 246.159 C 127.500 246.090,127.162 245.794,126.750 245.500 C 126.338 245.206,126.000 245.022,126.000 245.091 M68.875 246.000 C 68.662 246.412,68.543 246.750,68.612 246.750 C 68.681 246.750,68.912 246.412,69.125 246.000 C 69.338 245.588,69.457 245.250,69.388 245.250 C 69.319 245.250,69.088 245.588,68.875 246.000 M270.625 246.647 L 269.875 247.291 270.688 246.754 C 271.134 246.458,271.500 246.167,271.500 246.108 C 271.500 245.921,271.394 245.986,270.625 246.647 M127.750 246.341 C 127.750 246.410,128.088 246.706,128.500 247.000 C 128.912 247.294,129.250 247.478,129.250 247.409 C 129.250 247.340,128.912 247.044,128.500 246.750 C 128.088 246.456,127.750 246.272,127.750 246.341 M217.308 247.000 C 217.308 247.481,217.359 247.678,217.422 247.438 C 217.485 247.197,217.485 246.803,217.422 246.563 C 217.359 246.322,217.308 246.519,217.308 247.000 M67.875 247.750 C 67.662 248.162,67.543 248.500,67.612 248.500 C 67.681 248.500,67.912 248.162,68.125 247.750 C 68.338 247.338,68.457 247.000,68.388 247.000 C 68.319 247.000,68.088 247.338,67.875 247.750 M181.808 248.000 C 181.808 248.481,181.859 248.678,181.922 248.438 C 181.985 248.197,181.985 247.803,181.922 247.563 C 181.859 247.322,181.808 247.519,181.808 248.000 M129.500 247.591 C 129.500 247.660,129.838 247.956,130.250 248.250 C 130.662 248.544,131.000 248.728,131.000 248.659 C 131.000 248.590,130.662 248.294,130.250 248.000 C 129.838 247.706,129.500 247.522,129.500 247.591 M268.125 248.397 L 267.375 249.041 268.188 248.504 C 268.634 248.208,269.000 247.917,269.000 247.858 C 269.000 247.671,268.894 247.736,268.125 248.397 M331.875 248.750 C 332.088 249.162,332.319 249.500,332.388 249.500 C 332.457 249.500,332.338 249.162,332.125 248.750 C 331.912 248.338,331.681 248.000,331.612 248.000 C 331.543 248.000,331.662 248.338,331.875 248.750 M131.250 248.841 C 131.250 248.910,131.588 249.206,132.000 249.500 C 132.412 249.794,132.750 249.978,132.750 249.909 C 132.750 249.840,132.412 249.544,132.000 249.250 C 131.588 248.956,131.250 248.772,131.250 248.841 M266.375 249.647 L 265.625 250.291 266.438 249.754 C 266.884 249.458,267.250 249.167,267.250 249.108 C 267.250 248.921,267.144 248.986,266.375 249.647 M66.250 250.750 C 65.969 251.300,65.796 251.750,65.865 251.750 C 65.934 251.750,66.219 251.300,66.500 250.750 C 66.781 250.200,66.954 249.750,66.885 249.750 C 66.816 249.750,66.531 250.200,66.250 250.750 M133.000 250.091 C 133.000 250.160,133.338 250.456,133.750 250.750 C 134.162 251.044,134.500 251.228,134.500 251.159 C 134.500 251.090,134.162 250.794,133.750 250.500 C 133.338 250.206,133.000 250.022,133.000 250.091 M264.625 250.897 L 263.875 251.541 264.688 251.004 C 265.134 250.708,265.500 250.417,265.500 250.358 C 265.500 250.171,265.394 250.236,264.625 250.897 M333.375 251.500 C 333.723 252.188,334.065 252.750,334.133 252.750 C 334.202 252.750,333.973 252.188,333.625 251.500 C 333.277 250.813,332.935 250.250,332.867 250.250 C 332.798 250.250,333.027 250.813,333.375 251.500 M217.563 251.625 C 217.566 252.175,217.617 252.371,217.677 252.060 C 217.737 251.749,217.734 251.299,217.672 251.060 C 217.609 250.821,217.560 251.075,217.563 251.625 M134.750 251.341 C 134.750 251.410,135.088 251.706,135.500 252.000 C 135.912 252.294,136.250 252.478,136.250 252.409 C 136.250 252.340,135.912 252.044,135.500 251.750 C 135.088 251.456,134.750 251.272,134.750 251.341 M181.558 252.500 C 181.558 252.981,181.609 253.178,181.672 252.938 C 181.735 252.697,181.735 252.303,181.672 252.063 C 181.609 251.822,181.558 252.019,181.558 252.500 M260.813 253.525 C 260.228 253.939,259.750 254.333,259.750 254.401 C 259.750 254.469,260.256 254.176,260.875 253.750 C 261.494 253.324,262.000 252.925,262.000 252.863 C 262.000 252.691,261.953 252.717,260.813 253.525 M138.250 253.841 C 138.250 253.910,138.588 254.206,139.000 254.500 C 139.412 254.794,139.750 254.978,139.750 254.909 C 139.750 254.840,139.412 254.544,139.000 254.250 C 138.588 253.956,138.250 253.772,138.250 253.841 M258.625 255.147 L 257.875 255.791 258.688 255.254 C 259.134 254.958,259.500 254.667,259.500 254.608 C 259.500 254.421,259.394 254.486,258.625 255.147 M140.000 255.091 C 140.000 255.160,140.338 255.456,140.750 255.750 C 141.162 256.044,141.500 256.228,141.500 256.159 C 141.500 256.090,141.162 255.794,140.750 255.500 C 140.338 255.206,140.000 255.022,140.000 255.091 M217.808 256.250 C 217.808 256.731,217.859 256.928,217.922 256.688 C 217.985 256.447,217.985 256.053,217.922 255.813 C 217.859 255.572,217.808 255.769,217.808 256.250 M256.875 256.397 L 256.125 257.041 256.938 256.504 C 257.384 256.208,257.750 255.917,257.750 255.858 C 257.750 255.671,257.644 255.736,256.875 256.397 M63.170 256.887 C 62.583 258.118,62.665 258.328,63.279 257.164 C 63.558 256.635,63.742 256.159,63.688 256.105 C 63.634 256.050,63.401 256.402,63.170 256.887 M141.750 256.341 C 141.750 256.410,142.088 256.706,142.500 257.000 C 142.912 257.294,143.250 257.478,143.250 257.409 C 143.250 257.340,142.912 257.044,142.500 256.750 C 142.088 256.456,141.750 256.272,141.750 256.341 M181.308 257.000 C 181.308 257.481,181.359 257.678,181.422 257.438 C 181.485 257.197,181.485 256.803,181.422 256.563 C 181.359 256.322,181.308 256.519,181.308 257.000 M254.813 257.775 C 254.228 258.189,253.750 258.583,253.750 258.651 C 253.750 258.719,254.256 258.426,254.875 258.000 C 255.494 257.574,256.000 257.175,256.000 257.113 C 256.000 256.941,255.953 256.967,254.813 257.775 M336.271 257.125 C 336.271 257.262,336.487 257.769,336.750 258.250 C 337.013 258.731,337.229 259.012,337.229 258.875 C 337.229 258.738,337.013 258.231,336.750 257.750 C 336.487 257.269,336.271 256.988,336.271 257.125 M145.500 259.047 C 145.706 259.256,146.662 259.969,147.625 260.630 C 148.588 261.292,149.206 261.662,149.000 261.453 C 148.794 261.244,147.838 260.531,146.875 259.870 C 145.912 259.208,145.294 258.838,145.500 259.047 M252.625 259.397 L 251.875 260.041 252.688 259.504 C 253.134 259.208,253.500 258.917,253.500 258.858 C 253.500 258.671,253.394 258.736,252.625 259.397 M61.791 259.886 C 61.372 260.805,61.452 261.001,61.905 260.165 C 62.116 259.775,62.242 259.409,62.185 259.352 C 62.128 259.295,61.950 259.535,61.791 259.886 M218.058 260.750 C 218.058 261.231,218.109 261.428,218.172 261.188 C 218.235 260.947,218.235 260.553,218.172 260.313 C 218.109 260.072,218.058 260.269,218.058 260.750 M250.875 260.647 L 250.125 261.291 250.938 260.754 C 251.384 260.458,251.750 260.167,251.750 260.108 C 251.750 259.921,251.644 259.986,250.875 260.647 M181.058 261.250 C 181.058 261.731,181.109 261.928,181.172 261.688 C 181.235 261.447,181.235 261.053,181.172 260.813 C 181.109 260.572,181.058 260.769,181.058 261.250 M95.495 261.313 C 95.235 261.849,95.240 261.853,95.607 261.395 C 95.987 260.922,96.000 260.922,96.559 261.395 L 97.125 261.875 96.649 261.313 C 96.387 261.003,96.081 260.750,95.970 260.750 C 95.859 260.750,95.645 261.003,95.495 261.313 M292.415 270.129 C 286.687 275.288,282.000 279.566,282.000 279.636 C 282.000 279.707,286.528 275.693,292.063 270.716 C 297.597 265.740,302.324 261.499,302.566 261.292 C 302.963 260.953,303.047 260.964,303.393 261.395 C 303.760 261.853,303.765 261.849,303.505 261.313 C 303.095 260.466,303.531 260.119,292.415 270.129 M98.125 262.750 C 98.662 263.300,99.158 263.750,99.226 263.750 C 99.295 263.750,98.912 263.300,98.375 262.750 C 97.838 262.200,97.342 261.750,97.274 261.750 C 97.205 261.750,97.588 262.200,98.125 262.750 M304.125 262.750 C 304.338 263.163,304.569 263.500,304.638 263.500 C 304.707 263.500,304.588 263.163,304.375 262.750 C 304.162 262.337,303.931 262.000,303.862 262.000 C 303.793 262.000,303.912 262.337,304.125 262.750 M151.310 263.146 C 151.400 263.290,152.182 263.896,153.049 264.492 C 153.916 265.088,154.456 265.409,154.250 265.205 C 153.669 264.630,151.127 262.849,151.310 263.146 M246.625 263.647 L 245.875 264.291 246.688 263.754 C 247.134 263.458,247.500 263.167,247.500 263.108 C 247.500 262.921,247.394 262.986,246.625 263.647 M93.875 264.000 C 93.662 264.413,93.543 264.750,93.612 264.750 C 93.681 264.750,93.912 264.413,94.125 264.000 C 94.338 263.587,94.457 263.250,94.388 263.250 C 94.319 263.250,94.088 263.587,93.875 264.000 M99.500 263.862 C 99.500 263.931,104.056 268.043,109.625 273.000 C 115.194 277.957,119.750 281.956,119.750 281.888 C 119.750 281.819,115.194 277.707,109.625 272.750 C 104.056 267.793,99.500 263.794,99.500 263.862 M305.125 264.500 C 305.338 264.913,305.569 265.250,305.638 265.250 C 305.707 265.250,305.588 264.913,305.375 264.500 C 305.162 264.087,304.931 263.750,304.862 263.750 C 304.793 263.750,304.912 264.087,305.125 264.500 M218.313 265.125 C 218.316 265.675,218.367 265.871,218.427 265.560 C 218.487 265.249,218.484 264.799,218.422 264.560 C 218.359 264.321,218.310 264.575,218.313 265.125 M244.875 264.897 L 244.125 265.541 244.938 265.004 C 245.384 264.708,245.750 264.417,245.750 264.358 C 245.750 264.171,245.644 264.236,244.875 264.897 M92.375 266.750 C 92.027 267.438,91.798 268.000,91.867 268.000 C 91.935 268.000,92.277 267.438,92.625 266.750 C 92.973 266.063,93.202 265.500,93.133 265.500 C 93.065 265.500,92.723 266.063,92.375 266.750 M154.750 265.591 C 154.750 265.660,155.088 265.956,155.500 266.250 C 155.912 266.544,156.250 266.728,156.250 266.659 C 156.250 266.590,155.912 266.294,155.500 266.000 C 155.088 265.706,154.750 265.522,154.750 265.591 M243.125 266.147 L 242.375 266.791 243.188 266.254 C 243.634 265.958,244.000 265.667,244.000 265.608 C 244.000 265.421,243.894 265.486,243.125 266.147 M156.500 266.841 C 156.500 266.910,156.838 267.206,157.250 267.500 C 157.662 267.794,158.000 267.978,158.000 267.909 C 158.000 267.840,157.662 267.544,157.250 267.250 C 156.838 266.956,156.500 266.772,156.500 266.841 M241.375 267.397 L 240.625 268.041 241.438 267.504 C 241.884 267.208,242.250 266.917,242.250 266.858 C 242.250 266.671,242.144 266.736,241.375 267.397 M307.426 268.868 C 307.795 269.620,308.139 270.194,308.190 270.143 C 308.303 270.031,307.042 267.500,306.874 267.500 C 306.809 267.500,307.057 268.116,307.426 268.868 M158.250 268.091 C 158.250 268.160,158.588 268.456,159.000 268.750 C 159.412 269.044,159.750 269.228,159.750 269.159 C 159.750 269.090,159.412 268.794,159.000 268.500 C 158.588 268.206,158.250 268.022,158.250 268.091 M239.313 268.775 C 238.728 269.189,238.250 269.583,238.250 269.651 C 238.250 269.719,238.756 269.426,239.375 269.000 C 239.994 268.574,240.500 268.175,240.500 268.113 C 240.500 267.941,240.453 267.967,239.313 268.775 M160.000 269.341 C 160.000 269.410,160.338 269.706,160.750 270.000 C 161.162 270.294,161.500 270.478,161.500 270.409 C 161.500 270.340,161.162 270.044,160.750 269.750 C 160.338 269.456,160.000 269.272,160.000 269.341 M237.125 270.397 L 236.375 271.041 237.188 270.504 C 237.634 270.208,238.000 269.917,238.000 269.858 C 238.000 269.671,237.894 269.736,237.125 270.397 M220.751 271.094 C 221.856 272.292,223.844 273.753,224.361 273.747 C 224.506 273.745,224.119 273.457,223.500 273.106 C 222.881 272.756,221.757 271.885,221.001 271.172 L 219.626 269.875 220.751 271.094 M90.047 271.387 C 89.294 272.937,89.378 273.154,90.154 271.663 C 90.501 270.996,90.742 270.408,90.689 270.356 C 90.637 270.304,90.348 270.768,90.047 271.387 M161.750 270.591 C 161.750 270.660,162.088 270.956,162.500 271.250 C 162.912 271.544,163.250 271.728,163.250 271.659 C 163.250 271.590,162.912 271.294,162.500 271.000 C 162.088 270.706,161.750 270.522,161.750 270.591 M178.465 270.938 C 177.746 271.806,177.441 272.250,177.565 272.250 C 177.634 272.250,177.991 271.856,178.358 271.375 C 179.039 270.482,179.122 270.145,178.465 270.938 M235.375 271.647 L 234.625 272.291 235.438 271.754 C 235.884 271.458,236.250 271.167,236.250 271.108 C 236.250 270.921,236.144 270.986,235.375 271.647 M163.500 271.841 C 163.500 271.910,163.838 272.206,164.250 272.500 C 164.662 272.794,165.000 272.978,165.000 272.909 C 165.000 272.840,164.662 272.544,164.250 272.250 C 163.838 271.956,163.500 271.772,163.500 271.841 M176.375 272.906 C 175.925 273.289,175.834 273.441,176.146 273.286 C 176.604 273.058,177.463 272.235,177.218 272.259 C 177.167 272.264,176.787 272.555,176.375 272.906 M170.190 274.927 C 170.501 274.987,170.951 274.984,171.190 274.922 C 171.429 274.859,171.175 274.810,170.625 274.813 C 170.075 274.816,169.879 274.867,170.190 274.927 M275.000 285.770 C 271.356 289.065,268.038 292.112,267.625 292.541 C 267.212 292.971,270.222 290.316,274.313 286.643 C 280.770 280.843,282.008 279.689,281.688 279.765 C 281.653 279.773,278.644 282.475,275.000 285.770 M120.875 283.000 C 121.412 283.550,121.908 284.000,121.976 284.000 C 122.045 284.000,121.662 283.550,121.125 283.000 C 120.588 282.450,120.092 282.000,120.024 282.000 C 119.955 282.000,120.338 282.450,120.875 283.000 M123.125 285.000 C 123.662 285.550,124.158 286.000,124.226 286.000 C 124.295 286.000,123.912 285.550,123.375 285.000 C 122.838 284.450,122.342 284.000,122.274 284.000 C 122.205 284.000,122.588 284.450,123.125 285.000 M125.375 287.000 C 125.912 287.550,126.408 288.000,126.476 288.000 C 126.545 288.000,126.162 287.550,125.625 287.000 C 125.088 286.450,124.592 286.000,124.524 286.000 C 124.455 286.000,124.838 286.450,125.375 287.000 M127.625 289.000 C 128.162 289.550,128.658 290.000,128.726 290.000 C 128.795 290.000,128.412 289.550,127.875 289.000 C 127.338 288.450,126.842 288.000,126.774 288.000 C 126.705 288.000,127.088 288.450,127.625 289.000 M129.072 290.158 C 129.288 290.516,133.250 294.095,133.250 293.932 C 133.250 293.866,132.272 292.926,131.076 291.843 C 129.880 290.761,128.978 290.002,129.072 290.158 M262.500 297.019 C 260.231 299.077,258.038 301.112,257.625 301.543 C 257.212 301.974,259.097 300.331,261.813 297.892 C 266.100 294.041,266.991 293.195,266.688 293.264 C 266.653 293.272,264.769 294.962,262.500 297.019 M133.500 294.093 C 133.500 294.164,135.513 296.024,137.974 298.227 C 140.435 300.430,142.810 302.658,143.250 303.179 C 143.691 303.699,143.936 303.900,143.794 303.625 C 143.389 302.840,133.500 293.683,133.500 294.093 M256.215 302.688 C 255.496 303.556,255.191 304.000,255.315 304.000 C 255.384 304.000,255.741 303.606,256.108 303.125 C 256.789 302.232,256.872 301.895,256.215 302.688 M254.500 312.846 C 254.500 313.114,255.244 314.500,255.388 314.500 C 255.457 314.500,255.327 314.134,255.100 313.688 C 254.636 312.775,254.500 312.585,254.500 312.846 M144.250 313.183 C 144.250 313.330,143.852 314.040,143.367 314.762 C 142.881 315.484,142.662 315.927,142.881 315.745 C 143.440 315.281,144.593 313.260,144.405 313.072 C 144.320 312.987,144.250 313.037,144.250 313.183 M255.863 315.240 C 256.314 315.969,257.127 316.800,257.875 317.298 C 258.544 317.744,258.533 317.718,257.775 317.062 C 257.307 316.657,256.632 315.995,256.275 315.591 C 255.917 315.186,255.732 315.029,255.863 315.240 M141.404 316.999 C 140.216 317.898,139.965 318.155,140.625 317.796 C 141.198 317.485,142.688 316.269,142.500 316.266 C 142.431 316.265,141.938 316.594,141.404 316.999 " stroke="none" fill="#716250" fill-rule="evenodd"></path><path id="path4" d="M188.092 126.500 C 188.092 127.944,188.134 128.534,188.184 127.813 C 188.235 127.091,188.235 125.909,188.184 125.188 C 188.134 124.466,188.092 125.056,188.092 126.500 M57.500 193.828 C 57.500 193.871,57.866 194.237,58.313 194.641 L 59.125 195.375 58.391 194.563 C 57.706 193.805,57.500 193.635,57.500 193.828 M68.250 205.125 C 69.827 206.706,71.173 208.000,71.242 208.000 C 71.311 208.000,70.077 206.706,68.500 205.125 C 66.923 203.544,65.577 202.250,65.508 202.250 C 65.439 202.250,66.673 203.544,68.250 205.125 M214.808 204.250 C 214.808 204.731,214.859 204.928,214.922 204.688 C 214.985 204.447,214.985 204.053,214.922 203.813 C 214.859 203.572,214.808 203.769,214.808 204.250 M91.979 214.878 C 90.386 216.458,89.150 217.750,89.233 217.750 C 89.316 217.750,90.673 216.456,92.250 214.875 C 93.827 213.294,95.062 212.001,94.996 212.003 C 94.929 212.004,93.572 213.298,91.979 214.878 M215.808 222.500 C 215.808 222.981,215.859 223.178,215.922 222.938 C 215.985 222.697,215.985 222.303,215.922 222.063 C 215.859 221.822,215.808 222.019,215.808 222.500 M329.818 234.500 C 329.818 235.119,329.867 235.372,329.926 235.063 C 329.986 234.753,329.986 234.247,329.926 233.938 C 329.867 233.628,329.818 233.881,329.818 234.500 M116.737 234.938 L 115.875 235.875 116.813 235.013 C 117.685 234.212,117.865 234.000,117.674 234.000 C 117.632 234.000,117.210 234.422,116.737 234.938 M282.375 235.250 C 282.912 235.800,283.408 236.250,283.476 236.250 C 283.545 236.250,283.162 235.800,282.625 235.250 C 282.088 234.700,281.592 234.250,281.524 234.250 C 281.455 234.250,281.838 234.700,282.375 235.250 M216.558 236.000 C 216.558 236.481,216.609 236.678,216.672 236.438 C 216.735 236.197,216.735 235.803,216.672 235.563 C 216.609 235.322,216.558 235.519,216.558 236.000 M217.808 258.750 C 217.808 259.231,217.859 259.428,217.922 259.188 C 217.985 258.947,217.985 258.553,217.922 258.313 C 217.859 258.072,217.808 258.269,217.808 258.750 " stroke="none" fill="#bd6b4d" fill-rule="evenodd"></path></g></svg>