<svg id="svg" xmlns="http://www.w3.org/2000/svg" xmlns:xlink="http://www.w3.org/1999/xlink" width="400" height="400" viewBox="0, 0, 400,400"><g id="svgg"><path id="path0" d="M104.688 1.246 C 101.156 2.775,97.897 5.895,96.022 9.539 C 94.576 12.351,94.531 15.740,94.531 123.047 C 94.531 246.443,94.081 236.196,99.733 241.560 C 104.724 246.297,101.243 246.094,177.335 246.094 L 246.908 246.094 246.696 315.213 L 246.484 384.332 244.705 386.111 L 242.925 387.891 141.406 387.891 L 39.887 387.891 38.108 386.111 L 36.328 384.332 36.328 235.848 L 36.328 87.365 38.520 85.479 C 40.702 83.602,40.796 83.594,58.964 83.594 C 80.711 83.594,83.226 82.767,81.569 76.166 C 80.375 71.408,78.954 71.094,58.630 71.094 C 34.287 71.094,30.332 72.329,25.719 81.373 C 23.373 85.970,23.365 385.902,25.710 390.461 C 27.628 394.190,30.883 397.257,34.545 398.787 C 39.437 400.830,244.389 400.574,248.828 398.519 C 255.330 395.509,258.594 389.876,258.594 381.666 L 258.594 376.563 292.994 376.562 C 330.484 376.562,330.632 376.547,335.450 372.029 C 339.635 368.105,340.589 364.739,340.608 353.832 C 340.628 342.515,340.094 341.406,334.630 341.406 C 329.811 341.406,329.120 342.720,328.773 352.537 C 328.510 359.984,328.277 361.132,326.717 362.693 L 324.958 364.453 291.776 364.680 L 258.594 364.908 258.594 347.298 L 258.594 329.688 310.572 329.688 C 371.278 329.688,369.664 329.935,374.300 319.922 C 376.605 314.945,376.587 50.735,374.281 46.217 C 369.634 37.106,365.802 35.938,340.589 35.938 C 318.278 35.938,317.187 36.231,317.187 42.244 C 317.187 48.333,317.569 48.438,339.800 48.438 C 359.274 48.438,359.289 48.439,361.480 50.323 L 363.672 52.208 363.672 183.114 L 363.672 314.019 361.893 315.799 L 360.114 317.578 309.354 317.795 L 258.594 318.013 258.594 299.631 L 258.594 281.250 298.316 281.250 C 343.115 281.250,340.625 281.603,340.625 275.255 C 340.625 269.245,342.749 269.531,298.181 269.531 L 258.594 269.531 258.594 257.813 L 258.594 246.094 298.316 246.094 C 343.115 246.094,340.625 246.447,340.625 240.099 C 340.625 234.538,340.078 234.375,321.423 234.376 L 305.078 234.377 305.313 222.657 L 305.547 210.938 321.793 210.938 C 340.239 210.938,340.625 210.815,340.625 204.942 C 340.625 199.390,340.056 199.219,321.618 199.219 L 305.469 199.219 305.469 187.500 L 305.469 175.781 321.754 175.781 C 340.243 175.781,340.625 175.660,340.625 169.786 C 340.625 164.234,340.056 164.063,321.618 164.063 L 305.469 164.063 305.469 152.344 L 305.469 140.625 321.754 140.625 C 340.243 140.625,340.625 140.504,340.625 134.630 C 340.625 129.078,340.056 128.906,321.618 128.906 L 305.469 128.906 305.469 117.188 L 305.469 105.469 321.754 105.469 C 340.243 105.469,340.625 105.348,340.625 99.474 C 340.625 93.765,340.565 93.750,317.052 93.750 C 298.076 93.750,296.229 93.868,295.060 95.160 C 293.904 96.437,293.764 102.866,293.572 163.498 L 293.359 230.426 291.580 232.205 L 289.800 233.984 200.000 233.984 L 110.200 233.984 108.420 232.205 L 106.641 230.425 106.641 123.047 L 106.641 15.668 108.420 13.889 L 110.200 12.109 200.000 12.109 L 289.800 12.109 291.580 13.888 L 293.359 15.667 293.589 47.458 C 293.847 83.328,293.621 82.031,299.609 82.031 C 305.707 82.031,305.469 83.488,305.469 46.202 C 305.469 7.047,305.215 5.885,295.703 1.481 C 291.323 -0.547,109.343 -0.771,104.688 1.246 M192.003 24.974 C 163.851 30.108,151.440 47.677,150.945 83.094 C 150.533 112.634,152.658 119.943,165.380 132.733 C 172.407 139.798,172.548 140.222,169.378 144.724 C 167.238 147.761,162.524 150.309,152.286 153.961 C 131.322 161.439,122.896 168.910,119.134 183.354 C 117.261 190.547,117.462 219.612,119.397 221.363 C 121.725 223.469,278.829 223.337,280.738 221.228 C 282.540 219.237,282.638 190.157,280.866 183.354 C 277.102 168.903,268.656 161.425,247.577 153.881 C 237.298 150.202,232.751 147.746,230.622 144.724 C 227.452 140.222,227.593 139.798,234.620 132.733 C 247.342 119.943,249.467 112.634,249.055 83.094 C 248.741 60.616,248.280 58.286,242.092 47.950 C 232.288 31.573,210.533 21.595,192.003 24.974 M206.339 37.499 C 219.856 40.005,232.092 51.314,235.517 64.465 C 238.437 75.674,236.962 105.656,233.087 113.845 C 218.537 144.602,171.771 139.394,164.110 106.163 C 162.798 100.475,163.069 69.892,164.479 64.480 C 169.210 46.315,188.127 34.122,206.339 37.499 M200.000 146.950 C 204.608 146.957,209.987 146.483,212.273 145.869 L 216.343 144.777 218.375 148.931 C 221.930 156.196,228.337 160.510,243.750 166.015 C 266.227 174.043,270.237 179.973,270.299 205.273 L 270.313 210.938 200.000 210.938 L 129.688 210.938 129.701 205.273 C 129.763 179.973,133.773 174.043,156.250 166.015 C 171.687 160.501,178.069 156.198,181.644 148.892 L 183.695 144.699 187.746 145.818 C 190.053 146.456,195.327 146.943,200.000 146.950 " stroke="none" fill="#000000" fill-rule="evenodd"></path></g></svg>